<svg xmlns="http://www.w3.org/2000/svg" viewBox="0 -0.5 32 32" shape-rendering="crispEdges">
<metadata>Made with Pixels to Svg https://codepen.io/shshaw/pen/XbxvNj</metadata>
<path stroke="#008ac4" d="M2 2h7M8 3h2" />
<path stroke="#00a4da" d="M1 3h7M7 4h5M11 5h2M12 6h1M12 7h2M5 8h6M13 8h1M10 9h5M12 10h3M14 11h1M8 12h5M14 12h2M12 13h5M13 14h8M17 15h4M18 16h3M16 17h5M15 18h6M15 19h6M15 20h6M15 21h6M15 22h6M15 23h6" />
<path stroke="#8ed1e9" d="M2 4h5M3 5h8M4 6h8M5 7h7M11 8h2M6 9h4M7 10h5M8 11h6M13 12h1M10 13h2M11 14h2M12 15h5M15 16h3" />
</svg>