<svg xmlns="http://www.w3.org/2000/svg" viewBox="0 -0.5 32 32" shape-rendering="crispEdges">
<metadata>Made with Pixels to Svg https://codepen.io/shshaw/pen/XbxvNj</metadata>
<path stroke="#00a4da" d="M6 4h1M12 4h1M7 5h1M12 5h1M8 6h1M13 6h1M9 7h1M13 7h1M9 8h1M14 8h1M3 9h1M10 9h1M14 9h1M4 10h2M11 10h1M15 10h1M6 11h1M12 11h1M15 11h1M7 12h2M13 12h1M15 12h1M9 13h1M14 13h1M16 13h1M10 14h2M14 14h1M16 14h5M12 15h1M15 15h1M17 15h4M13 16h2M16 16h5M15 17h6M15 18h6M15 19h6M15 20h6M15 21h6M15 22h6M15 23h6" />
<path stroke="#8ed1e9" d="M11 4h1M6 5h1M8 5h4M6 6h2M9 6h4M6 7h3M10 7h3M5 8h4M10 8h4M4 9h6M11 9h3M6 10h5M12 10h3M7 11h5M13 11h2M9 12h4M14 12h1M10 13h4M15 13h1M12 14h2M15 14h1M13 15h2M16 15h1M15 16h1" />
</svg>